<?xml version="1.0" encoding="utf-8"?>
<!-- Generator: Adobe Illustrator 16.0.3, SVG Export Plug-In . SVG Version: 6.00 Build 0)  -->
<!DOCTYPE svg PUBLIC "-//W3C//DTD SVG 1.1//EN" "http://www.w3.org/Graphics/SVG/1.1/DTD/svg11.dtd">
<svg version="1.1" id="Ebene_1" xmlns="http://www.w3.org/2000/svg" xmlns:xlink="http://www.w3.org/1999/xlink" x="0px" y="0px"
	 width="128px" height="128px" viewBox="0 0 128 128" enable-background="new 0 0 128 128" xml:space="preserve">
<g>
	<path fill="#E8F5F9" d="M64,127.5C28.986,127.5,0.5,99.014,0.5,64C0.5,28.986,28.986,0.5,64,0.5c35.014,0,63.5,28.486,63.5,63.5
		C127.5,99.014,99.014,127.5,64,127.5z"/>
	<path fill="#50BCBD" d="M64,1c34.738,0,63,28.262,63,63s-28.262,63-63,63S1,98.738,1,64S29.262,1,64,1 M64,0
		C28.654,0,0,28.654,0,64c0,35.347,28.654,64,64,64c35.347,0,64-28.653,64-64C128,28.654,99.347,0,64,0L64,0z"/>
</g>
<g>
	<path fill="#50BCBD" d="M38.684,96.061c2.097,8.936,6.297,15.23,12.219,16.819c12.764,3.42,29.545-16.076,36.643-42.571
		c0.966-3.604,1.689-7.176,2.225-10.683c1.067,1.48,2.07,2.964,3.008,4.447c-0.468,2.372-1.007,4.771-1.656,7.195
		c-7.884,29.411-25.969,49.262-41.176,45.186c-7.73-2.072-13.01-9.877-15.301-20.908C35.959,95.756,37.305,95.929,38.684,96.061z"/>
	<path fill="#50BCBD" d="M90.772,48.902c0.104-3.272,0.031-6.429-0.246-9.396c1.334,0.174,2.645,0.379,3.901,0.64
		c0.315,4.094,0.268,8.494-0.123,13.088C93.182,51.777,92.003,50.331,90.772,48.902z"/>
	<path fill="#50BCBD" d="M38.233,68.36c-1.068-1.479-2.071-2.963-3.007-4.445c0.467-2.366,1.004-4.761,1.654-7.182
		c7.88-29.414,25.966-49.261,41.174-45.187c7.725,2.071,13.001,9.866,15.296,20.884c-1.314-0.211-2.662-0.381-4.042-0.513
		c-2.095-8.924-6.295-15.211-12.211-16.797c-12.764-3.419-29.543,16.076-36.643,42.57C39.49,61.289,38.768,64.859,38.233,68.36z"/>
	<path fill="#50BCBD" d="M37.229,79.073c-0.106,3.284-0.032,6.454,0.248,9.431c-1.341-0.173-2.644-0.392-3.904-0.654
		c-0.317-4.101-0.268-8.509,0.123-13.112C34.82,76.197,35.998,77.642,37.229,79.073z"/>
	<path fill="#50BCBD" d="M97.394,38.945c-5.379-1.442-11.658-2.029-18.385-1.783c-1.399-1.195-2.811-2.343-4.243-3.44
		c8.638-0.708,16.777-0.177,23.589,1.649c9.859,2.642,16.287,7.818,18.099,14.575c3.216,12.003-8.478,25.794-28.007,34.951
		c0.701-1.703,1.367-3.442,1.991-5.222c15.432-8.248,24.909-19.557,22.44-28.772C111.425,45.478,105.926,41.23,97.394,38.945z"/>
	<path fill="#50BCBD" d="M49.687,39.03c2.282-0.777,4.627-1.501,7.046-2.15c2.432-0.651,4.864-1.202,7.286-1.671
		c1.466,0.936,2.925,1.923,4.38,2.982c-3.537,0.548-7.124,1.304-10.708,2.264c-3.594,0.962-7.052,2.109-10.348,3.393
		C48.089,42.188,48.873,40.58,49.687,39.03z"/>
	<path fill="#50BCBD" d="M58.596,25.822c8.57,4.108,17.393,10.459,25.259,18.325c8.153,8.155,14.386,16.891,18.379,25.204
		c-0.954,0.847-1.976,1.685-3.055,2.509c-3.808-8.27-9.944-17.097-17.94-25.096c-7.839-7.837-16.62-14.104-25.059-18
		C56.975,27.727,57.78,26.745,58.596,25.822z"/>
	<path fill="#50BCBD" d="M80.395,102.395c8.531,2.288,15.416,1.359,19.389-2.612c4.315-4.318,4.819-11.831,2.201-20.575
		c1.129-0.804,2.201-1.633,3.242-2.477c3.496,10.663,2.815,20.024-2.827,25.668c-4.947,4.946-13.103,6.217-22.965,3.572
		c-0.874-0.234-1.759-0.509-2.647-0.798c0.808-1,1.596-2.056,2.372-3.139C79.572,102.156,79.984,102.286,80.395,102.395z"/>
	<path fill="#50BCBD" d="M63.979,92.792c-1.465-0.936-2.93-1.922-4.381-2.983c3.536-0.547,7.125-1.302,10.711-2.262
		c3.599-0.963,7.059-2.109,10.357-3.399c-0.745,1.662-1.531,3.27-2.349,4.822c-2.28,0.778-4.629,1.502-7.05,2.149
		C68.835,91.773,66.401,92.323,63.979,92.792z"/>
	<path fill="#50BCBD" d="M39.561,43.101c-0.699,1.702-1.362,3.44-1.984,5.219c-15.438,8.249-24.923,19.559-22.455,28.778
		c1.455,5.426,6.954,9.671,15.485,11.958c5.377,1.441,11.654,2.029,18.374,1.784c1.405,1.198,2.831,2.336,4.268,3.438
		c-8.643,0.711-16.786,0.181-23.598-1.647c-9.864-2.642-16.292-7.818-18.103-14.574C8.331,66.051,20.027,52.257,39.561,43.101z"/>
	<g>
		<path fill="#50BCBD" d="M47.607,25.604c-8.531-2.287-15.417-1.358-19.389,2.614c-4.319,4.319-4.819,11.833-2.201,20.576
			c-1.128,0.805-2.205,1.633-3.242,2.475c-3.499-10.662-2.817-20.023,2.826-25.668c4.946-4.945,13.101-6.213,22.964-3.571
			c0.874,0.234,1.758,0.507,2.646,0.798c-0.81,1-1.598,2.054-2.372,3.138C48.428,25.844,48.016,25.715,47.607,25.604z"/>
		<path fill="#50BCBD" d="M28.824,56.143c3.804,8.271,9.942,17.098,17.94,25.095c7.835,7.836,16.613,14.101,25.051,17.996
			c-0.796,1.035-1.601,2.018-2.418,2.939c-8.568-4.106-17.387-10.457-25.25-18.32C35.994,75.7,29.764,66.964,25.769,58.653
			C26.726,57.807,27.745,56.968,28.824,56.143z"/>
	</g>
</g>
</svg>
