<?xml version="1.0" encoding="utf-8"?>
<!-- Generator: Adobe Illustrator 16.0.3, SVG Export Plug-In . SVG Version: 6.00 Build 0)  -->
<!DOCTYPE svg PUBLIC "-//W3C//DTD SVG 1.1//EN" "http://www.w3.org/Graphics/SVG/1.1/DTD/svg11.dtd">
<svg version="1.1" id="Ebene_1" xmlns="http://www.w3.org/2000/svg" xmlns:xlink="http://www.w3.org/1999/xlink" x="0px" y="0px"
	 width="500px" height="500px" viewBox="0 0 500 500" enable-background="new 0 0 500 500" xml:space="preserve">
<g>
	<path fill-rule="evenodd" clip-rule="evenodd" fill="none" d="M112.161,500C74.778,500,37.396,500,0,500
		C0,354.979,0,209.957,0,64.863c166.61,0,333.236,0,500,0c0,144.998,0,290.068,0,435.137c-38.117,0-76.343,0-114.568,0
		c0.646-0.233,1.293-0.466,1.938-0.705c7.706-2.851,15.526-5.437,23.039-8.726c2.061-0.9,4.515-3.995,4.379-5.912
		c-0.123-1.736-3.522-3.249-5.494-4.838c-0.363-0.294-0.808-0.485-2.121-1.257c2.813-0.904,4.746-1.486,6.652-2.148
		c5.808-2.02,11.9-3.481,17.357-6.207c26.229-13.106,45.761-33.086,59.066-59.147c9.921-19.434,11.388-39.508,4.54-60.3
		c-6.611-20.078-18.076-37.259-31.347-53.344c-20.599-24.965-44.767-46.098-70.914-65.038c-5.076-3.676-10.233-7.238-15.262-10.788
		c3.479-7.973,1.535-12.656-6.253-15.478c-3.411-1.235-7.007-1.958-10.43-3.167c-1.466-0.518-2.701-1.686-4.042-2.559
		c9.42-2.215,14.231-7.625,16.087-16.204c2.382-11.002-5.3-20.706-16.479-20.807c-11.517-0.105-20.66,5.396-29.407,11.993
		c-1.467,1.105-3.064,2.036-4.603,3.047c0.161-2.302,0.931-3.902,1.925-5.346c5.25-7.625,10.295-15.408,15.896-22.767
		c12.799-16.813,26.809-32.505,44.237-44.757c9.045-6.357,18.643-11.377,30.052-11.963c4.461-0.229,8.9-0.95,13.335-1.542
		c3.097-0.414,6.408-1.706,6.494-4.929c0.068-2.507-1.545-5.612-3.378-7.528c-10.004-10.459-23.26-13.296-36.86-13.644
		c-15.699-0.401-31.459,0.033-47.142,0.962c-17.744,1.051-35.412,3.347-53.151,4.542c-11.887,0.8-23.854,0.32-35.755,0.971
		c-12.589,0.689-25.127,2.287-37.715,3.011c-7.961,0.458-15.623,2.381-24.016,0.87c-13.74-2.473-27.866-3.157-41.865-3.757
		c-22.049-0.944-44.072,0.202-66.033,2.466c-5.02,0.518-10.109,0.396-15.112,1.01c-1.433,0.176-2.92,1.722-3.86,3.018
		c-0.295,0.407,0.856,2.608,1.787,3.041c6.811,3.176,13.881,5.817,20.589,9.185c13.447,6.749,26.267,14.566,37.491,24.692
		c20.508,18.503,36.837,40.391,51.159,63.86c0.667,1.093,1.211,2.708,0.929,3.865c-2.003,8.194-4.625,10.278-13.146,11.013
		c-4.667,0.403-8.717,1.853-11.19,6.293c-0.559,1.003-1.71,1.814-2.767,2.381c-35.491,19.051-67.698,42.559-96.212,71.04
		c-19.063,19.041-36.478,39.369-47.729,64.203c-8.178,18.053-12.873,36.791-6.222,56.299c14.277,41.875,42.225,69.951,85.165,82.368
		c1.259,0.364,2.455,0.952,2.879,1.119c-2.464,2.187-6.176,3.962-6.494,6.217c-0.276,1.966,3.254,4.487,5.153,6.724
		c0.345,0.402,0.902,0.682,1.415,0.882C98.714,494.823,105.439,497.409,112.161,500z"/>
	<path fill-rule="evenodd" clip-rule="evenodd" d="M112.161,500c-6.722-2.591-13.447-5.177-20.162-7.786
		c-0.513-0.2-1.07-0.479-1.415-0.882c-1.899-2.236-5.43-4.758-5.153-6.724c0.317-2.255,4.03-4.03,6.494-6.217
		c-0.424-0.167-1.62-0.755-2.879-1.119c-42.94-12.417-70.888-40.493-85.165-82.368c-6.651-19.508-1.956-38.246,6.222-56.299
		c11.251-24.834,28.666-45.162,47.729-64.203c28.514-28.481,60.721-51.989,96.212-71.04c1.057-0.567,2.208-1.378,2.767-2.381
		c2.473-4.44,6.523-5.89,11.19-6.293c8.52-0.735,11.142-2.818,13.146-11.013c0.283-1.157-0.261-2.772-0.929-3.865
		c-14.322-23.47-30.651-45.357-51.159-63.86c-11.224-10.126-24.043-17.943-37.491-24.692c-6.708-3.368-13.778-6.008-20.589-9.185
		c-0.93-0.433-2.082-2.633-1.787-3.041c0.94-1.296,2.428-2.842,3.86-3.018c5.003-0.613,10.092-0.492,15.112-1.01
		c21.961-2.264,43.984-3.41,66.033-2.466c13.999,0.6,28.125,1.284,41.865,3.757c8.393,1.512,16.054-0.412,24.016-0.87
		c12.588-0.724,25.126-2.322,37.715-3.011c11.9-0.651,23.868-0.171,35.755-0.971c17.739-1.195,35.407-3.491,53.151-4.542
		c15.683-0.93,31.442-1.364,47.142-0.962c13.601,0.348,26.856,3.185,36.86,13.644c1.833,1.917,3.446,5.021,3.378,7.528
		c-0.086,3.223-3.397,4.515-6.494,4.929c-4.435,0.592-8.874,1.313-13.335,1.542c-11.409,0.586-21.007,5.606-30.052,11.963
		c-17.429,12.251-31.438,27.944-44.237,44.757c-5.602,7.359-10.646,15.143-15.896,22.767c-0.994,1.444-1.764,3.044-1.925,5.346
		c1.538-1.011,3.136-1.941,4.603-3.047c8.747-6.598,17.891-12.098,29.407-11.993c11.18,0.101,18.861,9.804,16.479,20.807
		c-1.855,8.579-6.667,13.989-16.087,16.204c1.341,0.873,2.576,2.041,4.042,2.559c3.423,1.21,7.019,1.932,10.43,3.167
		c7.788,2.822,9.732,7.504,6.253,15.478c5.028,3.55,10.186,7.111,15.262,10.788c26.147,18.94,50.315,40.073,70.914,65.038
		c13.271,16.085,24.735,33.266,31.347,53.344c6.848,20.792,5.381,40.866-4.54,60.3c-13.306,26.062-32.838,46.041-59.066,59.147
		c-5.457,2.726-11.55,4.188-17.357,6.207c-1.906,0.662-3.84,1.244-6.652,2.148c1.313,0.771,1.758,0.963,2.121,1.257
		c1.972,1.589,5.371,3.102,5.494,4.838c0.136,1.917-2.318,5.012-4.379,5.912c-7.513,3.289-15.333,5.875-23.039,8.726
		c-0.645,0.239-1.292,0.472-1.938,0.705c-62.694,0-125.391,0-188.084,0c-3.028-0.38-6.064-1.133-9.084-1.078
		c-12.438,0.227-24.871,0.698-37.305,1.078C138.026,500,125.093,500,112.161,500z M348.691,216.184
		c-7.395-0.404-14.443-0.171-21.259-1.322c-7.92-1.335-13.522,1.223-19.538,6.315c-15.936,13.486-34.397,23.116-53.01,32.392
		c-2.472,1.232-5.593,2.479-6.826,4.629c-3.619,6.306-9.249,6.118-15.005,5.559c-1.612-0.156-3.962-1.606-4.39-2.963
		c-0.63-1.996-0.728-5.404,0.496-6.529c5.435-4.995,11.084-9.927,17.301-13.862c6.964-4.407,14.734-7.518,21.952-11.556
		c7.279-4.073,14.31-8.59,21.449-12.913c-0.187-0.403-0.371-0.806-0.557-1.209c-7.371,1.953-14.779,3.781-22.107,5.879
		c-36.438,10.435-72.86,20.922-109.275,31.434c-8.463,2.442-16.86,5.115-25.318,7.571c-7.87,2.287-14.021-2.252-12.165-9.445
		c0.724-2.81,3.568-5.982,6.259-7.213c10.296-4.712,20.863-8.858,31.448-12.905c6.685-2.557,13.581-4.564,20.118-6.73
		c-4.913-2.341-10.669-3.617-14.232-7.123c-5.485-5.398-9.847-3.834-14.904-0.432c-0.232,0.156-0.487,0.28-0.73,0.42
		c-33.316,19.116-63.42,42.415-90.22,69.902c-15.94,16.351-29.97,34.172-39.868,54.965c-9.816,20.62-12.221,41.461-2.371,62.811
		c5.093,11.042,11.638,21.119,19.772,30.15c12.557,13.938,26.799,25.549,44.83,31.727c7.017,2.403,14.289,4.118,21.155,6.867
		c2.5,1.002,5.233,3.8,5.938,6.315c0.93,3.317-2.382,5.271-5.208,6.748c-0.599,0.312-1.152,0.714-1.726,1.073
		c-0.035,0.395-0.069,0.79-0.104,1.185c6.498,1.392,12.976,3.815,19.499,3.945c11.603,0.232,23.23-0.984,34.852-1.487
		c7.971-0.344,15.965-0.939,23.92-0.647c11.057,0.408,22.08,1.643,33.129,2.336c11.75,0.738,23.508,1.681,35.269,1.76
		c14.4,0.099,28.939,0.469,43.174-1.281c12.918-1.587,25.539-1.824,38.38-0.343c18.729,2.159,37.477,1.999,56.1-1.165
		c4.65-0.789,9.144-2.496,14.79-4.084c-2.099-1.164-2.953-1.604-3.775-2.102c-5.014-3.035-5.327-7.203-0.526-10.669
		c1.989-1.439,4.46-2.288,6.81-3.137c9.461-3.411,19.438-5.769,28.346-10.256c19.872-10.01,35.005-25.424,46.892-44.215
		c15.441-24.41,17.125-49.324,4.406-75.429c-10.153-20.84-24.156-38.786-40.136-55.28c-20.18-20.828-42.607-38.984-66.572-55.321
		c-4.626-3.153-8.682-3.978-13.948-2.366c-4.818,1.476-9.938,1.971-15.567,3.016C346.759,225.683,347.666,221.226,348.691,216.184z
		 M258.472,87.9c0.249,0.302,0.499,0.604,0.747,0.905c6.397,0.428,12.808,0.708,19.188,1.316
		c10.661,1.017,21.081,3.175,30.493,8.558c7.043,4.029,7.016,8.196-0.214,11.684c-14.375,6.936-29.755,11.039-45.508,12.508
		c-16.808,1.569-33.753-0.057-50.146-4.052c-28.386-6.918-56.559-14.708-84.824-22.126c-3.251-0.853-6.515-1.659-9.773-2.487
		c-0.214,0.396-0.427,0.792-0.641,1.188c0.979,0.962,1.885,2.012,2.949,2.868c4.482,3.606,9.187,6.955,13.492,10.758
		c18.984,16.772,34.229,36.667,48.145,57.708c5.758,8.705,9.888,18.589,18.438,25.399c1.622,1.292,2.387,4.786,2.119,7.099
		c-0.6,5.177,0.29,6.39,5.383,5.69c11.242-1.542,22.481-3.174,33.763-4.356c16.279-1.708,32.604-2.967,48.893-4.576
		c10.308-1.019,10.188-1.21,15.448-10.369c17.587-30.612,37.82-59.125,65.473-81.671c13.766-11.222,28.654-19.658,47.212-19.32
		c1.264,0.023,3.005-1.719,3.676-3.063c0.372-0.747-0.684-2.905-1.661-3.507c-4.89-3.007-9.729-5.327-16.109-3.995
		c-6.649,1.388-13.717,0.646-20.461,1.717c-10.334,1.64-20.521,4.17-30.817,6.063c-7.822,1.437-15.714,2.494-23.58,3.677
		c-14.292,2.151-28.502,4.032-42.792-0.631c-8.042-2.624-16.481-3.138-24.722-0.424C261.046,84.987,259.851,86.723,258.472,87.9z
		 M336.976,187.311c5.911-0.847,11.823-1.678,17.73-2.546c2.706-0.398,4.194-2.318,3.433-4.665c-0.349-1.08-3.063-2.142-4.564-1.973
		C347.016,178.869,341.609,182.187,336.976,187.311z"/>
	<path fill-rule="evenodd" clip-rule="evenodd" fill="#FFFFFF" d="M150.959,500c12.434-0.38,24.867-0.852,37.305-1.078
		c3.02-0.055,6.056,0.698,9.084,1.078C181.885,500,166.422,500,150.959,500z"/>
	<path fill-rule="evenodd" clip-rule="evenodd" fill="#FFD11B" d="M348.691,216.184c-1.025,5.042-1.933,9.499-3.055,15.015
		c5.63-1.045,10.749-1.54,15.567-3.016c5.267-1.612,9.322-0.788,13.948,2.366c23.965,16.337,46.393,34.493,66.572,55.321
		c15.979,16.494,29.982,34.44,40.136,55.28c12.719,26.104,11.035,51.019-4.406,75.429c-11.887,18.791-27.02,34.205-46.892,44.215
		c-8.908,4.487-18.885,6.845-28.346,10.256c-2.35,0.849-4.82,1.697-6.81,3.137c-4.801,3.466-4.487,7.634,0.526,10.669
		c0.822,0.498,1.677,0.938,3.775,2.102c-5.646,1.588-10.14,3.295-14.79,4.084c-18.623,3.164-37.37,3.324-56.1,1.165
		c-12.841-1.481-25.462-1.244-38.38,0.343c-14.234,1.75-28.773,1.38-43.174,1.281c-11.761-0.079-23.52-1.021-35.269-1.76
		c-11.049-0.693-22.072-1.928-33.129-2.336c-7.955-0.292-15.949,0.304-23.92,0.647c-11.622,0.503-23.25,1.72-34.852,1.487
		c-6.523-0.13-13.001-2.554-19.499-3.945c0.035-0.395,0.07-0.79,0.104-1.185c0.574-0.359,1.127-0.762,1.726-1.073
		c2.826-1.478,6.138-3.431,5.208-6.748c-0.705-2.516-3.438-5.313-5.938-6.315c-6.867-2.749-14.138-4.464-21.155-6.867
		c-18.03-6.178-32.273-17.788-44.83-31.727c-8.134-9.031-14.68-19.108-19.772-30.15c-9.85-21.35-7.446-42.19,2.371-62.811
		c9.898-20.793,23.928-38.614,39.868-54.965c26.8-27.487,56.904-50.786,90.22-69.902c0.244-0.14,0.499-0.264,0.73-0.42
		c5.058-3.402,9.419-4.966,14.904,0.432c3.563,3.506,9.319,4.782,14.232,7.123c-6.538,2.166-13.433,4.173-20.118,6.73
		c-10.584,4.047-21.152,8.193-31.448,12.905c-2.691,1.231-5.535,4.404-6.259,7.213c-1.856,7.193,4.294,11.732,12.165,9.445
		c8.458-2.456,16.854-5.129,25.318-7.571c36.415-10.512,72.837-21,109.275-31.434c7.328-2.098,14.736-3.926,22.107-5.879
		c0.186,0.403,0.37,0.806,0.557,1.209c-7.14,4.323-14.17,8.84-21.449,12.913c-7.218,4.038-14.987,7.149-21.952,11.556
		c-6.217,3.935-11.866,8.867-17.301,13.862c-1.224,1.125-1.126,4.533-0.496,6.529c0.428,1.356,2.778,2.807,4.39,2.963
		c5.756,0.56,11.386,0.747,15.005-5.559c1.233-2.15,4.354-3.396,6.826-4.629c18.612-9.275,37.074-18.905,53.01-32.392
		c6.016-5.092,11.618-7.65,19.538-6.315C334.248,216.012,341.297,215.779,348.691,216.184z"/>
	<path fill-rule="evenodd" clip-rule="evenodd" fill="#FFD11B" d="M258.472,87.9c1.379-1.177,2.574-2.913,4.17-3.438
		c8.24-2.714,16.68-2.2,24.722,0.424c14.29,4.663,28.5,2.782,42.792,0.631c7.866-1.183,15.758-2.24,23.58-3.677
		c10.296-1.893,20.483-4.424,30.817-6.063c6.744-1.07,13.812-0.329,20.461-1.717c6.38-1.332,11.22,0.988,16.109,3.995
		c0.978,0.602,2.033,2.76,1.661,3.507c-0.671,1.344-2.412,3.086-3.676,3.063c-18.558-0.338-33.446,8.098-47.212,19.32
		c-27.652,22.546-47.886,51.059-65.473,81.671c-5.261,9.158-5.141,9.35-15.448,10.369c-16.289,1.609-32.613,2.868-48.893,4.576
		c-11.282,1.183-22.521,2.814-33.763,4.356c-5.094,0.699-5.983-0.513-5.383-5.69c0.268-2.313-0.497-5.806-2.119-7.099
		c-8.55-6.811-12.681-16.695-18.438-25.399c-13.916-21.041-29.16-40.936-48.145-57.708c-4.305-3.804-9.01-7.152-13.492-10.758
		c-1.064-0.856-1.97-1.906-2.949-2.868c0.214-0.396,0.427-0.792,0.641-1.188c3.258,0.828,6.522,1.634,9.773,2.487
		c28.265,7.418,56.438,15.208,84.824,22.126c16.393,3.995,33.338,5.621,50.146,4.052c15.753-1.47,31.133-5.573,45.508-12.508
		c7.229-3.487,7.257-7.654,0.214-11.684c-9.412-5.382-19.832-7.541-30.493-8.558c-6.38-0.608-12.79-0.888-19.188-1.316
		C258.971,88.503,258.721,88.202,258.472,87.9z"/>
	<path fill-rule="evenodd" clip-rule="evenodd" fill="#FFD11B" d="M336.976,187.311c4.634-5.124,10.04-8.442,16.599-9.183
		c1.502-0.169,4.216,0.893,4.564,1.973c0.762,2.347-0.727,4.266-3.433,4.665C348.799,185.632,342.887,186.464,336.976,187.311z"/>
	<text transform="matrix(1 0 0 1 182.8018 432.4287)" font-family="'CenturyGothic-Bold'" font-size="200">A</text>
</g>
</svg>
