<?xml version="1.0" encoding="utf-8"?>
<!-- Generator: Adobe Illustrator 16.0.3, SVG Export Plug-In . SVG Version: 6.00 Build 0)  -->
<!DOCTYPE svg PUBLIC "-//W3C//DTD SVG 1.1//EN" "http://www.w3.org/Graphics/SVG/1.1/DTD/svg11.dtd">
<svg version="1.1" id="Ebene_1" xmlns="http://www.w3.org/2000/svg" xmlns:xlink="http://www.w3.org/1999/xlink" x="0px" y="0px"
	 width="90px" height="45px" viewBox="0 0 90 45" enable-background="new 0 0 90 45" xml:space="preserve">
<path fill="#35F800" d="M85.438,11.638c0,2.205-1.787,3.992-3.991,3.992H8.554c-2.204,0-3.991-1.787-3.991-3.992l0,0
	c0-2.204,1.787-3.991,3.991-3.991h72.893C83.65,7.647,85.438,9.434,85.438,11.638L85.438,11.638z"/>
<path fill="#35F800" d="M85.438,33.361c0,2.205-1.787,3.992-3.991,3.992H8.554c-2.204,0-3.991-1.787-3.991-3.992l0,0
	c0-2.203,1.787-3.99,3.991-3.99h72.893C83.65,29.371,85.438,31.158,85.438,33.361L85.438,33.361z"/>
</svg>
