<?xml version="1.0" encoding="utf-8"?>
<!-- Generator: Adobe Illustrator 16.0.3, SVG Export Plug-In . SVG Version: 6.00 Build 0)  -->
<!DOCTYPE svg PUBLIC "-//W3C//DTD SVG 1.1//EN" "http://www.w3.org/Graphics/SVG/1.1/DTD/svg11.dtd">
<svg version="1.1" id="Ebene_1" xmlns="http://www.w3.org/2000/svg" xmlns:xlink="http://www.w3.org/1999/xlink" x="0px" y="0px"
	 width="148.875px" height="36.375px" viewBox="0 0 148.875 36.375" enable-background="new 0 0 148.875 36.375"
	 xml:space="preserve">
<g>
	<path fill="#FFDE00" stroke="#FFFFFF" stroke-miterlimit="10" d="M148,22.5c0,6.627-4.432,12-9.898,12H11.898
		C6.432,34.5,2,29.127,2,22.5v-9c0-6.627,4.432-12,9.898-12h126.204c5.467,0,9.898,5.373,9.898,12V22.5z"/>

		<text transform="matrix(1 0 0 1 8.5 26)" stroke="#000000" stroke-miterlimit="10" font-family="'MyriadPro-Regular'" font-size="24">Jetzt wiegen!</text>
</g>
<g>
	<path fill="#312783" stroke="#FFFFFF" stroke-miterlimit="10" d="M148,22.5c0,6.627-4.432,12-9.898,12H11.898
		C6.432,34.5,2,29.127,2,22.5v-9c0-6.627,4.432-12,9.898-12h126.204c5.467,0,9.898,5.373,9.898,12V22.5z"/>

		<text transform="matrix(1 0 0 1 8.5 26)" fill="#FFFFFF" stroke="#FFFFFF" stroke-miterlimit="10" font-family="'MyriadPro-Regular'" font-size="24">Jetzt wiegen!</text>
</g>
</svg>
