<?xml version="1.0" encoding="utf-8"?>
<!-- Generator: Adobe Illustrator 16.0.3, SVG Export Plug-In . SVG Version: 6.00 Build 0)  -->
<!DOCTYPE svg PUBLIC "-//W3C//DTD SVG 1.1//EN" "http://www.w3.org/Graphics/SVG/1.1/DTD/svg11.dtd">
<svg version="1.1" id="Ebene_1" xmlns="http://www.w3.org/2000/svg" xmlns:xlink="http://www.w3.org/1999/xlink" x="0px" y="0px"
	 width="600px" height="600px" viewBox="0 0 600 600" enable-background="new 0 0 600 600" xml:space="preserve">
<g>
	<path fill="#F39200" d="M235,65c0-2.75,2.25-5,5-5l0,0c2.75,0,5,2.25,5,5v255c0,2.75-2.25,5-5,5l0,0c-2.75,0-5-2.25-5-5V65z"/>
</g>
<g>
	<path fill="#F39200" d="M355,65c0-2.75,2.25-5,5-5l0,0c2.75,0,5,2.25,5,5v255c0,2.75-2.25,5-5,5l0,0c-2.75,0-5-2.25-5-5V65z"/>
</g>
<g>
	<path fill="#F39200" d="M475,65c0-2.75,2.25-5,5-5l0,0c2.75,0,5,2.25,5,5v254.904c0,2.75-2.25,5-5,5l0,0c-2.75,0-5-2.25-5-5V65z"/>
</g>
<path fill="#F39200" d="M600,60c0,2.761-2.238,5-5,5H5c-2.761,0-5-2.239-5-5l0,0c0-2.761,2.239-5,5-5h590
	C597.762,55,600,57.239,600,60L600,60z"/>
<g>
	<path fill="#F39200" d="M115,65c0-2.75,2.25-5,5-5l0,0c2.75,0,5,2.25,5,5v255c0,2.75-2.25,5-5,5l0,0c-2.75,0-5-2.25-5-5V65z"/>
</g>
<circle fill="#F6F6F6" cx="60" cy="60" r="6"/>
<circle fill="#F6F6F6" cx="540" cy="60" r="6"/>
<circle fill="#F6F6F6" cx="120" cy="320" r="6"/>
<circle fill="#F6F6F6" cx="240" cy="320" r="6"/>
<circle fill="#F6F6F6" cx="360" cy="320" r="6"/>
<circle fill="#F6F6F6" cx="480" cy="320" r="6"/>
<circle fill="#F6F6F6" cx="120" cy="260" r="6"/>
<circle fill="#F6F6F6" cx="240" cy="260" r="6"/>
<circle fill="#F6F6F6" cx="360" cy="260" r="6"/>
<circle fill="#F6F6F6" cx="480" cy="260" r="6"/>
<circle fill="#F6F6F6" cx="480" cy="200" r="6"/>
<circle fill="#F6F6F6" cx="360" cy="200" r="6"/>
<circle fill="#F6F6F6" cx="240" cy="200" r="6"/>
<circle fill="#F6F6F6" cx="120" cy="200" r="6"/>
<circle fill="#F6F6F6" cx="120" cy="140" r="6"/>
<circle fill="#F6F6F6" cx="240" cy="140" r="6"/>
<circle fill="#F6F6F6" cx="360" cy="140" r="6"/>
<circle fill="#F6F6F6" cx="480" cy="140" r="6"/>
<rect fill="none" width="600" height="600"/>
</svg>
