<?xml version="1.0" encoding="utf-8"?>
<!-- Generator: Adobe Illustrator 16.0.3, SVG Export Plug-In . SVG Version: 6.00 Build 0)  -->
<!DOCTYPE svg PUBLIC "-//W3C//DTD SVG 1.1//EN" "http://www.w3.org/Graphics/SVG/1.1/DTD/svg11.dtd">
<svg version="1.1" id="Ebene_1" xmlns="http://www.w3.org/2000/svg" xmlns:xlink="http://www.w3.org/1999/xlink" x="0px" y="0px"
	 width="600px" height="600px" viewBox="0 0 600 600" enable-background="new 0 0 600 600" xml:space="preserve">
<g>
	<g>
		<g>
			<path fill="#93DAFF" d="M285.167,233.667c0,5.5-2.617,13.661-5.816,18.135l-13.868,19.397
				c-3.199,4.474-10.316,8.135-15.816,8.135h-201.5c-5.5,0-12.375-3.822-15.279-8.493l-11.609-18.68
				C18.375,247.489,16,239.167,16,233.667V227c0-5.5,4.5-10,10-10h249.167c5.5,0,10,4.5,10,10V233.667z"/>
			<path fill="#93DAFF" stroke="#000000" stroke-width="2" stroke-miterlimit="10" d="M285.167,233.667
				c0,5.5-2.617,13.661-5.816,18.135l-13.868,19.397c-3.199,4.474-10.316,8.135-15.816,8.135h-201.5
				c-5.5,0-12.375-3.822-15.279-8.493l-11.609-18.68C18.375,247.489,16,239.167,16,233.667V227c0-5.5,4.5-10,10-10h249.167
				c5.5,0,10,4.5,10,10V233.667z"/>
		</g>
		<g>
			<path fill="#93DAFF" d="M195,279.333V349c0,5.5-4.5,10-10,10h-57c-5.5,0-10-4.5-10-10v-69.667"/>
			<path fill="#93DAFF" stroke="#000000" stroke-width="2" stroke-miterlimit="10" d="M195,279.333V349c0,5.5-4.5,10-10,10h-57
				c-5.5,0-10-4.5-10-10v-69.667"/>
		</g>
		<g>
			<line fill="#93DAFF" x1="16" y1="243.667" x2="285.167" y2="243.667"/>
			
				<line fill="#93DAFF" stroke="#000000" stroke-width="2" stroke-miterlimit="10" x1="16" y1="243.667" x2="285.167" y2="243.667"/>
		</g>
	</g>
</g>
<g>
	<g>
		<g>
			<path fill="#93DAFF" d="M582.65,233.667c0,5.5-2.617,13.661-5.816,18.135l-13.867,19.397c-3.199,4.474-10.315,8.135-15.815,8.135
				H345.65c-5.5,0-12.375-3.822-15.277-8.494l-11.609-18.68c-2.902-4.671-5.277-12.994-5.277-18.494V227c0-5.5,4.5-10,10-10H572.65
				c5.5,0,10,4.5,10,10V233.667z"/>
			<path fill="#93DAFF" stroke="#000000" stroke-width="2" stroke-miterlimit="10" d="M582.65,233.667
				c0,5.5-2.617,13.661-5.816,18.135l-13.867,19.397c-3.199,4.474-10.315,8.135-15.815,8.135H345.65
				c-5.5,0-12.375-3.822-15.277-8.494l-11.609-18.68c-2.902-4.671-5.277-12.994-5.277-18.494V227c0-5.5,4.5-10,10-10H572.65
				c5.5,0,10,4.5,10,10V233.667z"/>
		</g>
		<g>
			<path fill="#93DAFF" d="M492.484,279.334V349c0,5.5-4.5,10-10,10h-57c-5.5,0-10-4.5-10-10v-69.666"/>
			<path fill="#93DAFF" stroke="#000000" stroke-width="2" stroke-miterlimit="10" d="M492.484,279.334V349c0,5.5-4.5,10-10,10h-57
				c-5.5,0-10-4.5-10-10v-69.666"/>
		</g>
		<g>
			<line fill="#93DAFF" x1="313.484" y1="243.667" x2="582.65" y2="243.667"/>
			
				<line fill="#93DAFF" stroke="#000000" stroke-width="2" stroke-miterlimit="10" x1="313.484" y1="243.667" x2="582.65" y2="243.667"/>
		</g>
	</g>
</g>
<line fill="#93DAFF" stroke="#000000" stroke-width="2" stroke-miterlimit="10" x1="118" y1="279.333" x2="195" y2="279.333"/>
<line fill="#93DAFF" stroke="#000000" stroke-width="2" stroke-miterlimit="10" x1="415.484" y1="279.334" x2="492.484" y2="279.334"/>
<g>
	<path fill="#3444FF" stroke="#343434" stroke-miterlimit="10" d="M582.65,441c0,5.5-4.5,10-10,10H23c-5.5,0-10-4.5-10-10v-72
		c0-5.5,4.5-10,10-10h549.65c5.5,0,10,4.5,10,10V441z"/>
	<path fill="#3444FF" stroke="#343434" stroke-miterlimit="10" d="M582.65,441c0,5.5-4.5,10-10,10H23c-5.5,0-10-4.5-10-10v-72
		c0-5.5,4.5-10,10-10h549.65c5.5,0,10,4.5,10,10V441z"/>
</g>
</svg>
